ply
format ascii 1.0
element vertex 303
property float x
property float y
property float z
property uchar red
property uchar green
property uchar blue
element edge 24
property int vertex1
property int vertex2
property uchar red
property uchar green
property uchar blue
end_header
0.028298 -0.004703 5.174248 164 141 133
-0.022373 0.005571 5.144590 217 202 173
-0.024491 -0.049136 5.125755 140 127 119
0.012088 -0.041337 5.136714 221 205 180
0.038309 -0.003262 5.187484 135 125 116
-0.026943 -0.045222 5.124134 202 196 174
-0.016869 -0.064690 5.137226 182 164 150
-0.040493 -0.047198 5.133336 132 122 112
0.017964 -0.044899 5.136140 210 195 172
0.018478 -0.042970 5.137045 155 140 137
-0.033676 -0.043973 5.126296 131 117 108
-0.031143 -0.041503 5.124300 134 121 115
0.017509 -0.043409 5.136499 133 120 114
-0.029816 -0.051118 5.128308 238 232 208
-0.034622 -0.046040 5.127401 106 90 75
0.017193 -0.046674 5.135467 228 222 196
-0.002565 -0.059533 5.140262 184 168 153
-0.008450 -0.009784 5.134545 226 219 193
-0.031038 -0.051642 5.129515 172 152 141
-0.041999 -0.045564 5.133690 223 211 185
0.028982 -0.002003 5.173489 139 124 117
-0.040331 -0.051923 5.136155 160 141 135
-0.041949 -0.048915 5.135518 208 198 171
-0.017789 -0.037321 5.123423 138 125 119
-0.025545 -0.014527 5.136797 236 222 196
-0.000851 -0.048236 5.137120 200 190 163
-0.010786 -0.043715 5.124185 144 127 119
0.004314 -0.047151 5.135932 152 136 139
-0.041949 -0.047613 5.134580 153 135 131
-0.009231 -0.010886 5.134155 144 132 120
-0.041475 -0.051368 5.136423 155 138 131
0.040205 -0.029553 5.163400 129 117 91
-0.040215 -0.053745 5.137344 180 174 150
-0.036966 -0.044597 5.129063 210 207 188
0.019063 -0.042238 5.137444 179 172 144
-0.020030 -0.064174 5.137100 117 98 83
-0.029834 -0.069626 5.143281 142 129 121
0.020600 -0.055813 5.139989 140 125 122
-0.032209 -0.061794 5.137796 148 132 133
0.016226 -0.041175 5.136919 142 132 122
0.015913 -0.042157 5.136527 138 126 126
0.019097 -0.040424 5.137740 203 195 172
0.034336 -0.007233 5.186492 228 217 197
0.006451 -0.045752 5.135999 149 129 128
-0.022511 -0.063055 5.135335 217 207 182
0.036666 -0.046817 5.151605 142 129 121
0.056226 -0.013158 5.194169 225 219 197
-0.008616 -0.041152 5.127506 142 129 121
-0.007931 -0.017622 5.134431 144 133 127
-0.031622 -0.049550 5.128174 161 141 143
-0.028019 -0.054017 5.130104 217 206 178
0.035064 -0.033795 5.161588 199 183 158
0.043684 0.018612 5.199865 223 205 181
-0.025374 0.011217 5.148980 160 146 146
0.040193 0.007279 5.199588 139 129 117
0.038241 0.007094 5.200521 179 161 137
-0.024936 -0.012795 5.136238 133 120 114
0.036238 -0.025895 5.165765 188 174 165
0.018468 -0.041211 5.137457 156 137 141
0.006512 -0.037284 5.141175 232 225 206
-0.020996 -0.055516 5.128884 144 132 120
-0.030684 -0.057037 5.134976 143 125 123
0.022009 -0.005640 5.154862 224 213 193
-0.025459 -0.053417 5.128044 228 215 183
0.015300 -0.040808 5.137131 157 149 130
-0.038169 -0.058355 5.138900 202 194 173
-0.036677 -0.039648 5.126525 153 138 135
-0.019635 -0.062291 5.134658 198 187 159
0.036629 -0.026189 5.165451 217 210 182
0.017856 -0.044516 5.136279 146 131 128
-0.039047 -0.049130 5.133292 180 165 132
-0.029475 -0.050374 5.127609 238 232 208
-0.026465 -0.048252 5.125848 156 143 137
0.004898 -0.045385 5.136359 159 138 135
-0.028526 -0.065750 5.139312 206 199 173
-0.032673 -0.068415 5.143130 145 133 119
0.006257 -0.045111 5.136322 227 219 200
0.017262 -0.045929 5.135700 154 141 133
-0.004877 -0.019448 5.134810 138 125 119
0.036152 0.011910 5.201573 205 195 168
-0.032411 -0.065428 5.140643 143 130 122
-0.013633 -0.068021 5.142004 148 136 136
-0.018204 -0.069156 5.141646 230 224 200
0.004854 -0.047296 5.135845 159 148 146
-0.022289 -0.065863 5.137948 217 202 169
-0.041649 -0.049918 5.135530 216 208 187
-0.018368 -0.065167 5.138156 232 226 200
-0.038497 -0.052231 5.134996 226 218 199
-0.022321 -0.058579 5.131566 165 153 139
-0.007842 -0.066722 5.145515 141 127 124
-0.034157 -0.060414 5.137874 143 131 135
0.006991 -0.044582 5.136294 235 227 206
0.028084 -0.045384 5.141071 193 181 159
-0.029049 -0.064984 5.138928 193 179 140
0.051286 -0.006661 5.187550 171 156 153
0.035260 -0.046826 5.149601 139 126 117
0.044117 -0.032001 5.163712 129 114 95
0.019156 -0.039554 5.138131 221 207 181
-0.028364 -0.048788 5.126130 225 219 197
0.043256 -0.030840 5.163813 193 189 164
0.040878 -0.023484 5.168033 141 130 124
0.013347 -0.045339 5.135397 227 219 200
-0.019799 -0.068741 5.140811 149 136 127
-0.038398 -0.043671 5.128836 158 143 140
-0.023848 -0.048398 5.124932 218 206 184
-0.037884 -0.058963 5.139023 147 137 128
-0.019788 -0.069752 5.141770 158 146 146
-0.007659 -0.062049 5.138634 205 189 155
0.017472 -0.043803 5.136255 154 144 135
0.018030 -0.039062 5.137620 212 201 179
0.035003 -0.026111 5.165590 196 190 166
0.031049 -0.002875 5.176679 152 140 140
-0.041553 -0.061428 5.141971 162 152 142
-0.036633 -0.064870 5.141687 147 135 121
0.008609 -0.036349 5.142147 216 210 188
-0.034100 -0.067828 5.143091 152 137 144
-0.037402 -0.056042 5.137110 204 193 173
-0.032392 -0.069731 5.144214 211 207 182
-0.042255 -0.050552 5.136405 243 243 243
0.044168 -0.033532 5.163892 207 201 177
-0.047299 -0.059177 5.143976 144 134 124
0.055456 0.016585 5.205893 155 144 140
-0.034054 -0.044985 5.126860 205 197 178
-0.038577 -0.059338 5.139469 140 126 123
-0.012782 -0.069918 5.144113 160 146 145
-0.010480 -0.065233 5.140856 164 152 152
-0.011487 -0.071324 5.146849 224 222 201
-0.036587 -0.043631 5.127946 222 217 195
-0.039799 -0.055900 5.138855 217 207 182
-0.030226 -0.049419 5.127429 221 213 190
-0.029180 -0.070462 5.143904 215 205 180
0.054964 -0.018440 5.188714 145 135 134
-0.043672 -0.040997 5.132504 147 131 132
0.000548 -0.009352 5.136584 211 204 188
-0.031209 -0.050816 5.128875 158 148 146
0.007117 -0.045821 5.135747 165 150 147
-0.040804 -0.055936 5.139534 144 134 132
-0.025649 0.011813 5.149054 152 138 127
0.005254 -0.044413 5.136938 149 139 138
-0.013438 -0.067775 5.141698 238 229 214
-0.023351 -0.066763 5.139245 152 142 141
-0.031949 -0.040400 5.124403 206 200 178
-0.040458 -0.054408 5.137671 221 214 195
-0.030759 -0.051203 5.128810 156 142 142
-0.047103 -0.059578 5.143710 225 211 185
-0.026819 -0.050848 5.126691 218 204 178
0.004020 -0.006895 5.138383 228 214 187
-0.030229 -0.060296 5.136686 231 225 203
0.000742 -0.067499 5.147875 164 151 142
-0.014843 0.002971 5.145763 222 206 181
-0.026847 -0.069127 5.141877 157 147 146
-0.022094 -0.057408 5.131078 227 219 198
-0.028171 -0.047660 5.125682 152 140 142
-0.026893 -0.072179 5.145041 163 150 144
-0.022196 -0.069447 5.141486 231 223 202
0.024698 -0.043334 5.139958 207 193 167
-0.026036 -0.001172 5.142023 165 155 145
-0.034966 -0.059278 5.137677 227 213 186
-0.022648 -0.064257 5.136052 177 164 156
-0.029017 -0.059431 5.135810 205 200 178
-0.035962 -0.067500 5.143345 215 213 192
-0.014123 -0.068017 5.141716 229 224 205
-0.022333 -0.063878 5.136145 177 170 160
-0.043567 -0.046939 5.135574 228 216 194
0.001269 -0.053612 5.137320 138 122 106
-0.035588 -0.056730 5.136760 217 207 182
-0.020171 -0.001480 5.139627 146 134 120
-0.025305 -0.047181 5.124841 224 213 195
-0.010667 -0.066750 5.142206 159 144 149
-0.025956 0.011362 5.149043 166 150 117
0.006984 -0.046548 5.135550 201 188 156
-0.034107 -0.066693 5.142158 159 146 138
-0.031453 0.017330 5.150045 235 232 217
-0.031982 -0.050514 5.128814 228 218 206
0.028244 -0.006554 5.174441 166 144 123
-0.041132 -0.052933 5.137321 233 226 200
0.056125 0.006984 5.199177 240 234 208
-0.022304 -0.064604 5.136842 150 130 106
0.028084 -0.041492 5.143234 169 159 157
-0.043343 -0.043415 5.133688 148 137 131
0.006317 -0.055984 5.136533 176 162 161
-0.035227 -0.067611 5.143238 190 175 146
-0.023448 -0.069306 5.141502 184 170 169
-0.036890 -0.058633 5.138249 180 165 144
0.003554 -0.046429 5.136533 232 227 207
-0.041851 -0.062239 5.141938 174 169 163
0.043511 0.015709 5.200200 234 225 196
-0.019338 -0.058057 5.130758 234 221 204
-0.028812 -0.046390 5.125278 188 181 175
-0.034145 -0.061880 5.138361 153 132 111
0.046274 -0.002268 5.187489 158 144 141
-0.034895 -0.004412 5.143353 222 207 186
-0.033214 -0.066407 5.141690 150 140 128
-0.024612 -0.056925 5.130809 182 166 153
-0.018823 -0.063610 5.136179 231 223 204
0.039082 0.019327 5.201201 174 158 161
-0.042940 -0.048312 5.135715 221 209 197
-0.028651 -0.063404 5.137943 241 239 214
0.043157 0.021377 5.199599 254 249 230
-0.027567 -0.044632 5.124033 165 151 150
0.041890 0.016930 5.200078 174 154 156
0.042431 0.020348 5.199599 219 211 188
-0.028391 -0.060370 5.136116 155 134 107
-0.024703 -0.076176 5.150515 176 158 170
-0.038856 -0.004526 5.149019 160 145 140
-0.036861 -0.065800 5.142359 230 224 200
-0.031895 -0.066627 5.141601 228 213 192
-0.028668 -0.068766 5.142026 162 148 148
-0.006222 -0.063032 5.142111 146 136 127
-0.013206 -0.073478 5.148948 222 214 191
-0.014513 -0.069934 5.144037 232 224 203
0.023740 -0.063778 5.155800 201 180 149
0.055226 0.008964 5.200332 221 215 199
0.023642 -0.034288 5.156274 211 208 193
-0.020094 -0.059398 5.131698 152 142 133
-0.033397 -0.061840 5.138342 156 141 138
-0.028755 -0.050489 5.127175 228 222 190
-0.034611 -0.068998 5.144038 164 155 140
0.054165 -0.016424 5.190516 170 159 155
-0.040274 -0.042735 5.130431 218 195 161
-0.025728 -0.071179 5.143706 226 216 191
-0.028969 -0.066378 5.139849 203 192 170
-0.036196 -0.056088 5.136342 240 233 207
-0.039948 -0.016992 5.146420 179 163 129
-0.028485 -0.059987 5.136034 157 143 143
-0.021683 -0.059541 5.131841 221 215 193
0.006193 -0.046811 5.135721 159 149 139
-0.019082 -0.068458 5.140796 156 143 134
0.041387 0.013498 5.200439 223 209 183
0.037996 -0.022697 5.167821 215 208 182
0.026974 -0.053158 5.143029 221 212 195
-0.025135 -0.033058 5.126076 202 196 172
-0.027781 -0.070296 5.143641 211 201 174
-0.009688 -0.001652 5.147168 173 162 144
-0.020015 0.005714 5.144465 152 141 135
-0.043586 -0.058773 5.141853 145 136 129
-0.034650 -0.068335 5.143755 179 173 159
-0.017336 -0.074756 5.148769 169 157 159
-0.030417 -0.050517 5.128228 223 201 164
-0.033229 -0.062988 5.138886 215 207 186
-0.038646 -0.051732 5.134482 178 170 168
0.052828 -0.020296 5.186025 187 170 140
-0.017979 -0.071692 5.144069 161 151 139
-0.036067 -0.063382 5.140249 171 163 160
-0.011034 -0.065095 5.139780 232 221 201
-0.025420 -0.074555 5.148234 172 154 116
-0.034631 -0.066867 5.142411 221 213 190
0.043053 0.023547 5.199867 161 136 106
-0.039839 -0.047044 5.133062 141 119 96
-0.035038 -0.065021 5.141003 219 205 179
0.017392 0.001284 5.159753 210 202 179
0.034098 -0.048518 5.147441 213 208 188
-0.012423 -0.069398 5.143783 234 223 205
-0.029347 -0.046471 5.125266 181 168 162
0.011314 0.017457 5.151124 165 150 147
-0.020581 -0.056300 5.129672 180 167 159
-0.033591 -0.068213 5.143339 181 160 129
-0.036374 -0.004905 5.145418 169 161 148
-0.027500 -0.068657 5.141659 217 191 158
-0.013513 -0.001300 5.142152 131 118 102
-0.030182 -0.068989 5.142867 212 192 155
-0.032956 -0.062362 5.138307 217 199 163
-0.023438 -0.047560 5.123956 184 166 162
0.008027 -0.044888 5.136154 242 242 216
-0.027578 -0.072042 5.145261 174 158 159
0.035765 -0.026573 5.165579 224 215 200
-0.035469 -0.066308 5.142540 119 103 87
0.003842 -0.046845 5.136223 184 173 169
0.024512 -0.063379 5.156553 222 210 184
-0.033738 -0.069537 5.144453 228 220 199
0.011159 0.011444 5.151729 217 209 188
-0.003015 0.026535 5.143146 199 179 152
-0.023761 -0.055590 5.129524 197 182 159
0.006797 -0.043673 5.136826 197 182 159
-0.029604 -0.049532 5.127128 168 147 116
-0.026323 -0.053688 5.128671 221 214 188
-0.037670 -0.060938 5.139393 233 222 200
-0.001024 -0.051053 5.136670 185 170 137
0.057142 -0.019091 5.189830 179 165 136
-0.026817 -0.068088 5.140694 217 207 182
-0.006901 -0.064149 5.142800 230 214 188
-0.022750 -0.064943 5.137079 229 221 198
-0.031314 -0.061797 5.137308 220 214 198
-0.021179 -0.063208 5.135778 175 148 121
0.019190 -0.038611 5.138591 235 229 203
-0.035426 -0.044302 5.127414 181 176 173
-0.009269 -0.063130 5.139313 222 205 179
-0.037412 -0.055425 5.136957 232 226 210
0.000000 0.000000 0.000000 0 255 0
0.018720 0.028080 1.560000 0 255 0
-0.018720 0.028080 1.560000 0 255 0
0.018720 -0.028080 1.560000 0 255 0
-0.018720 -0.028080 1.560000 0 255 0
0.988908 0.134213 0.063616 0 255 0
0.713615 0.120419 1.599442 0 255 0
0.676844 0.120488 1.592395 0 255 0
0.713797 0.064279 1.597943 0 255 0
0.677026 0.064348 1.590897 0 255 0
1.484612 0.209628 0.175448 0 255 0
1.059436 0.171634 1.676288 0 255 0
1.023538 0.171978 1.665661 0 255 0
1.059615 0.115527 1.673868 0 255 0
1.023717 0.115871 1.663240 0 255 0
288 289 0 255 0
288 290 0 255 0
288 291 0 255 0
288 292 0 255 0
289 290 0 255 0
290 292 0 255 0
292 291 0 255 0
291 289 0 255 0
293 294 0 255 0
293 295 0 255 0
293 296 0 255 0
293 297 0 255 0
294 295 0 255 0
295 297 0 255 0
297 296 0 255 0
296 294 0 255 0
298 299 0 255 0
298 300 0 255 0
298 301 0 255 0
298 302 0 255 0
299 300 0 255 0
300 302 0 255 0
302 301 0 255 0
301 299 0 255 0
